<?xml version="1.0" encoding="UTF-8"?>
<svg xmlns="http://www.w3.org/2000/svg" version="1.1" viewBox="0 0 426.2 184.4">
  <defs>
    <style>
      .cls-1 {
        fill: #fff;
      }

      .cls-2 {
        fill: #b70e0c;
      }

      .cls-3 {
        fill: #0084d5;
      }
    </style>
  </defs>
  <!-- Generator: Adobe Illustrator 28.7.1, SVG Export Plug-In . SVG Version: 1.2.0 Build 142)  -->
  <g>
    <g id="Camada_1">
      <g>
        <path class="cls-1" d="M77.4,184.4c-21.3,0-40.7-8.7-54.7-22.7C8.7,147.7,0,128.3,0,107v-29.6c0-21.3,8.7-40.7,22.7-54.7C36.7,8.7,56.1,0,77.4,0h271.4c21.3,0,40.7,8.7,54.7,22.7,14,14,22.7,33.4,22.7,54.7v74.2c0,9-3.7,17.2-9.6,23.2-5.9,5.9-14.1,9.6-23.2,9.6H77.4Z"/>
        <path class="cls-3" d="M348.8,9.6H77.4c-18.7,0-35.6,7.6-47.9,19.9s-19.9,29.2-19.9,47.9v29.6c0,18.7,7.6,35.6,19.9,47.9,12.3,12.3,29.2,19.9,47.9,19.9h316.1c6.4,0,12.2-2.6,16.4-6.8,4.2-4.2,6.8-10,6.8-16.4v-74.2c0-18.7-7.6-35.6-19.9-47.9-12.3-12.3-29.2-19.9-47.9-19.9M407,151.6c0,3.7-1.5,7.1-4,9.6-2.5,2.4-5.8,4-9.6,4H77.4c-16,0-30.6-6.5-41.1-17s-17.1-25.1-17.1-41.1v-29.6c0-16,6.5-30.6,17.1-41.1,10.5-10.5,25.1-17,41.1-17h271.4c16,0,30.6,6.5,41.1,17,10.5,10.5,17.1,25.1,17.1,41.1v74.2Z"/>
        <path class="cls-2" d="M348.8,28.9H77.4c-13.4,0-25.5,5.4-34.3,14.2-8.8,8.8-14.2,20.9-14.2,34.3v29.6c0,13.4,5.4,25.5,14.2,34.3,8.8,8.8,20.9,14.2,34.3,14.2h316.1c1.1,0,2.1-.4,2.8-1.1.7-.7,1.1-1.7,1.1-2.8v-74.2c0-13.4-5.4-25.5-14.2-34.3-8.8-8.8-20.9-14.2-34.3-14.2"/>
        <path class="cls-1" d="M169,85.7c-7.6-1.7-14.2-3.2-14.2-8.3s5.5-7.7,10.9-7.7,10.1,1.9,12.7,5.6c.7,1,2.1,1.3,3.1.7l8-4.4c1.3-.7,1.6-2.3.8-3.5-5.2-7.6-14.1-11.9-24.8-11.9-15.2,0-26.2,9.1-26.2,21.5s13.5,18.5,24.4,20.9c7.7,1.7,14.4,3.1,14.4,8.4s-6.8,8.1-12.7,8.1-11.4-2.1-14.5-6.8c-.7-1-2.1-1.3-3.2-.7l-8,4.4c-1.2.7-1.6,2.2-.9,3.4,5.5,8.8,14.8,13.4,27.1,13.4s27.7-9.4,27.7-21.9-13.6-18.5-24.5-21"/>
        <path class="cls-1" d="M223.7,40.3h-10.7c-1.3,0-2.4,1.1-2.4,2.4v13.4h-10.9c-1.3,0-2.4,1.1-2.4,2.4v8.9c0,1.3,1.1,2.4,2.4,2.4h10.9v32c0,16.6,10.2,26.9,26.6,26.9s11.5-2.3,13.5-3.5c.7-.4,1.2-1.2,1.2-2.1v-9.8c0-1.5-1.6-2.4-2.9-1.6-2.3,1.3-5.8,2.7-10.6,2.7-7.7,0-12.3-4.9-12.3-13v-31.6h23.4c1.3,0,2.4-1.1,2.4-2.4v-8.9c0-1.3-1.1-2.4-2.4-2.4h-23.4v-13.4c0-1.3-1.1-2.4-2.4-2.4"/>
        <path class="cls-1" d="M288,56.2c-16.9,0-27.9,11.6-27.9,29.5v40.5c0,1.3,1.1,2.4,2.4,2.4h10.7c1.3,0,2.4-1.1,2.4-2.4v-40c0-9.4,5.1-15.1,13.6-15.1h.5c.7,0,1.4-.3,1.8-.8l8.2-9.3c.9-1,.5-2.6-.7-3.1-2.1-.8-5.6-1.8-11-1.8"/>
        <path class="cls-1" d="M114.2,62.5c-5.9-4-13.2-6.3-21.3-6.3-20.6,0-36.8,15.8-36.8,36.1s15.2,36.4,34.7,36.4,18.4-4.1,24-11.3v8.9c0,1.3,1.1,2.4,2.4,2.4h10c1.3,0,2.4-1.1,2.4-2.4V58.6c0-1.3-1.1-2.4-2.4-2.4h-10.7c-1.3,0-2.4,1.1-2.4,2.4v3.9ZM92.9,113.8c-11.7,0-21.3-9.6-21.3-21.4s9.5-21.5,21.3-21.5,21.3,9.5,21.3,21.5-9.3,21.4-21.3,21.4"/>
        <path class="cls-1" d="M354.6,58.6v3.9c-5.9-4-13.2-6.3-21.3-6.3-20.6,0-36.8,15.8-36.8,36.1s15.2,36.4,34.7,36.4,18.4-4.1,24-11.3v8.9c0,1.3,1.1,2.4,2.4,2.4h10c1.3,0,2.4-1.1,2.4-2.4V58.6c0-1.3-1.1-2.4-2.4-2.4h-10.7c-1.3,0-2.4,1.1-2.4,2.4M333.3,113.8c-11.7,0-21.3-9.6-21.3-21.4s9.5-21.5,21.3-21.5,21.3,9.5,21.3,21.5-9.3,21.4-21.3,21.4"/>
      </g>
    </g>
  </g>
</svg>